<svg width="18" height="11" viewBox="0 0 18 11" fill="none" xmlns="http://www.w3.org/2000/svg">
<path d="M0 5.24003C0 5.43895 0.0790178 5.62971 0.21967 5.77036C0.360322 5.91102 0.551088 5.99003 0.75 5.99003H15.4395L12.2205 9.20903C12.0839 9.35049 12.0083 9.53994 12.01 9.73659C12.0117 9.93323 12.0906 10.1213 12.2296 10.2604C12.3687 10.3995 12.5568 10.4783 12.7534 10.48C12.9501 10.4817 13.1395 10.4062 13.281 10.2695L17.781 5.76953C17.8504 5.70054 17.9055 5.6185 17.9431 5.52815C17.9806 5.43779 18 5.34089 18 5.24303V5.24003C18 5.14253 17.9805 5.04503 17.9415 4.95353C17.9041 4.86261 17.8491 4.78001 17.7795 4.71053L13.2795 0.210534C13.138 0.0739153 12.9486 -0.00168046 12.7519 2.8352e-05C12.5553 0.00173717 12.3672 0.0806137 12.2281 0.21967C12.0891 0.358726 12.0102 0.546835 12.0085 0.743483C12.0068 0.940131 12.0824 1.12958 12.219 1.27103L15.4395 4.49003H0.75C0.551088 4.49003 0.360322 4.56905 0.21967 4.7097C0.0790178 4.85036 0 5.04112 0 5.24003Z" fill="#132D46"/>
</svg>
