<svg width="32" height="32" viewBox="0 0 32 32" fill="none" xmlns="http://www.w3.org/2000/svg">
<g clip-path="url(#clip0_3423_7022)">
<path d="M32 16C32 7.16344 24.8366 0 16 0C7.16344 0 0 7.16344 0 16C0 24.8366 7.16344 32 16 32C24.8366 32 32 24.8366 32 16Z" fill="#1C354D"/>
<path d="M17.2744 25.031V16.4665H20.1492L20.5803 13.1287H17.2744V10.9976C17.2744 10.0313 17.5428 9.37276 18.9286 9.37276H20.696V6.38831C19.8405 6.2978 18.9807 6.25395 18.1204 6.25698C15.572 6.25698 13.8275 7.81239 13.8275 10.669V13.1287H10.9453V16.4665H13.8275V25.031H17.2744Z" fill="#FCFEFD"/>
</g>
<defs>
<clipPath id="clip0_3423_7022">
<rect width="32" height="32" fill="white"/>
</clipPath>
</defs>
</svg>
