<svg width="64" height="64" viewBox="0 0 64 64" fill="none" xmlns="http://www.w3.org/2000/svg">
<path d="M30.7825 35.858C39.8463 35.858 47.194 28.5104 47.194 19.4466C47.194 10.3828 39.8463 3.03516 30.7825 3.03516C21.7187 3.03516 14.3711 10.3828 14.3711 19.4466C14.3711 28.5104 21.7187 35.858 30.7825 35.858Z" fill="#F1F5F8"/>
<path d="M47.1874 19.4466C47.1874 20.69 47.0502 21.8969 46.7851 23.058C45.7428 22.8112 44.7554 22.3174 43.9508 21.6043C42.9908 20.7723 42.296 19.6843 41.4 18.7974C39.928 17.3437 37.8982 16.4843 35.832 16.4112C33.72 16.338 31.2605 16.9597 29.7245 15.4969C28.1885 14.0249 28.8834 11.1906 30.6662 10.0386C31.0502 9.79173 31.4891 9.58144 31.736 9.19744C32.7965 7.57916 30.7211 5.29344 29.6514 3.08087C30.0262 3.0443 30.4102 3.03516 30.7942 3.03516C39.8457 3.0443 47.1874 10.386 47.1874 19.4466ZM22.7394 18.4043C23.1234 19.922 21.9074 21.3666 20.6731 22.3266C20.0057 22.8569 19.2834 23.3414 18.4697 23.6157C17.2902 24.0089 16.0285 23.8992 14.8674 23.442C14.5474 22.162 14.3828 20.8363 14.3828 19.4649C14.3828 14.1346 16.9245 9.39858 20.8651 6.39973C21.5874 7.15859 22.2182 7.99973 22.7577 8.85916C23.0137 9.26144 23.2514 9.71859 23.1874 10.1849C23.0594 11.09 21.9714 11.4466 21.3405 12.0957C20.2342 13.2477 20.7005 15.1952 21.624 16.5117C22.0354 17.106 22.5474 17.682 22.7394 18.4043ZM43.0274 30.3632C40.0285 33.7277 35.6582 35.8489 30.7851 35.8489C25.976 35.8489 21.6514 33.7826 18.6525 30.482C18.8902 30.2534 19.1554 30.0523 19.448 29.8969C22.0354 28.4797 25.464 30.2534 28.1154 28.9643C29.368 28.3517 30.264 27.1174 31.5531 26.6054C32.3577 26.2854 33.2537 26.2763 34.1222 26.322C37.4868 26.5049 41.0617 27.6294 43.0274 30.3632Z" fill="#0DB368"/>
<path d="M42.6517 50.7337C41.6185 51.3645 40.3751 51.328 39.406 50.7428C39.1043 50.5691 38.83 50.3314 38.6014 50.0571L38.3363 49.6822C39.2323 51.1634 38.7568 53.0925 37.2757 53.9885C36.3431 54.5554 35.2368 54.5828 34.3225 54.1531C33.774 53.9062 33.2985 53.4857 32.9603 52.9371C32.9785 52.9645 32.9968 52.992 33.006 53.0194C33.838 54.4914 33.3534 56.3657 31.8905 57.2525C30.9763 57.8102 29.87 57.8377 28.9557 57.408H28.9465C28.5168 57.216 28.1328 56.9234 27.822 56.5394L27.5843 56.192C28.4803 57.6731 28.0048 59.6022 26.5237 60.5074C25.0334 61.4034 23.0951 60.928 22.1991 59.456L17.1797 51.4468V33.7005L27.4288 31.0674C33.7923 31.2777 38.9854 32.8594 39.6437 39.6982L43.7123 46.4182C44.6083 47.8994 44.1328 49.8377 42.6517 50.7337Z" fill="#FFD7C6"/>
<path d="M28.9569 57.4077H28.9477C28.518 57.2157 28.134 56.9232 27.8232 56.5392L27.5855 56.1917L24.6963 51.8489C24.5592 51.6386 24.614 51.3552 24.8243 51.218C25.0346 51.0809 25.318 51.1357 25.4552 51.346L29.0849 56.7677C29.222 56.978 29.1672 57.2615 28.9569 57.4077ZM34.3329 54.1437C34.3329 54.1437 34.3237 54.1437 34.3237 54.1529C33.7752 53.906 33.2997 53.4855 32.9615 52.9369C32.9797 52.9643 32.998 52.9917 33.0072 53.0192L29.35 47.7072C29.2037 47.4969 29.2586 47.2134 29.4689 47.0672C29.6792 46.93 29.9626 46.9757 30.0997 47.186L34.4517 53.5129C34.598 53.7232 34.5432 54.0066 34.3329 54.1437ZM39.5717 50.6694C39.5169 50.706 39.462 50.7243 39.4072 50.7426C39.1055 50.5689 38.8312 50.3312 38.6026 50.0569L38.3375 49.682L34.1683 43.602C34.022 43.3917 34.0769 43.1083 34.2872 42.962C34.4883 42.8157 34.7809 42.8706 34.918 43.0809L39.6906 50.0386C39.8369 50.2397 39.782 50.5323 39.5717 50.6694Z" fill="#FFC6CD"/>
<path d="M17.1902 34.2304V50.9161C17.1902 52.9367 15.5536 54.5732 13.5331 54.5732H8.18449C6.16392 54.5732 4.52734 52.9367 4.52734 50.9161V34.2304C4.52734 32.2098 6.16392 30.5732 8.18449 30.5732H13.5239C15.5536 30.5732 17.1902 32.2098 17.1902 34.2304Z" fill="#BEC2CC"/>
<path d="M44.1703 47.6342L36.4263 35.785C35.7863 34.8067 34.424 34.633 33.5555 35.4102L29.7246 38.8753C27.6218 40.777 24.2846 40.2193 22.9132 37.7416C22.5383 37.065 22.3555 36.3336 22.3555 35.593C22.3555 34.5324 22.7486 33.4719 23.4983 32.6399L30.392 25.0422C33.1532 22.0067 37.7246 21.4764 41.0983 23.7987L50.2869 30.153V47.6342H44.1703Z" fill="#FFC6CD"/>
<path d="M59.4754 30.7294V47.4151C59.4754 49.4357 57.8388 51.0723 55.8182 51.0723H50.4696C48.4491 51.0723 46.8125 49.4357 46.8125 47.4151V30.7294C46.8125 28.7088 48.4491 27.0723 50.4696 27.0723H55.8091C57.8388 27.0723 59.4754 28.7088 59.4754 30.7294Z" fill="#00E980"/>
<path d="M51.0554 47.1039C51.8734 47.1039 52.5365 46.4408 52.5365 45.6227C52.5365 44.8047 51.8734 44.1416 51.0554 44.1416C50.2373 44.1416 49.5742 44.8047 49.5742 45.6227C49.5742 46.4408 50.2373 47.1039 51.0554 47.1039Z" fill="white"/>
<path d="M13.114 36.4799C13.932 36.4799 14.5951 35.8167 14.5951 34.9987C14.5951 34.1807 13.932 33.5176 13.114 33.5176C12.2959 33.5176 11.6328 34.1807 11.6328 34.9987C11.6328 35.8167 12.2959 36.4799 13.114 36.4799Z" fill="white"/>
</svg>
