<svg width="64" height="64" viewBox="0 0 64 64" fill="none" xmlns="http://www.w3.org/2000/svg">
<path d="M60.214 34.9932C62.132 33.3622 63.282 31.5542 62.924 29.8152C62.509 27.8032 60.248 25.7532 57.861 26.0232C55.312 26.3092 53.831 28.6242 53.995 32.0642C54.043 33.0602 54.708 34.1682 55.819 35.1062C55.931 35.2002 56.046 35.2922 56.163 35.3792C55.146 35.9632 53.982 36.5312 52.684 37.0502L49.684 38.0502L50.317 39.9472L53.372 38.9262C55.057 38.2522 56.714 37.4212 58.165 36.4922C59.412 36.9782 60.763 37.1662 62.067 37.0072L61.823 35.0222C61.294 35.0892 60.751 35.0782 60.214 34.9932ZM57.993 34.2002C57.681 34.0192 57.385 33.8112 57.108 33.5772C56.36 32.9462 56.008 32.3142 55.992 31.9682C55.95 31.0992 55.978 28.2452 58.083 28.0102C58.148 28.0032 58.214 28.0002 58.279 28.0002C59.479 28.0002 60.751 29.1852 60.965 30.2192C61.161 31.1682 60.095 32.6712 57.993 34.2002ZM14 24.4922V16.1672C14 13.9522 16.309 13.3572 18 14.7882L24.124 19.6432L14 24.4922Z" fill="#0FC070"/>
<path d="M8.309 32H4C2.895 32 2 33.343 2 35V41C2 42.657 2.895 44 4 44H7.928L8.309 32Z" fill="#13D37C"/>
<path d="M14 52.5078V59.9998C14 61.1048 14.895 61.9998 16 61.9998H21C22.105 61.9998 23 61.1048 23 59.9998V57.0798L14 52.5078ZM46 52.5078V59.9998C46 61.1048 45.105 61.9998 44 61.9998H39C37.895 61.9998 37 61.1048 37 59.9998V57.0798L46 52.5078Z" fill="#0DB368"/>
<path d="M43.387 22.642C49.208 26.18 53 31.965 53 38.5C53 49.27 42.703 58 30 58C17.297 58 7 49.27 7 38.5C7 27.73 17.297 19 30 19C30.698 19 31.389 19.026 32.072 19.078L43.387 22.642Z" fill="#0FC070"/>
<path d="M43.387 22.642L32.071 19.078C31.389 19.026 30.698 19 30 19C20.774 19 12.821 23.608 9.156 30.255C9.057 30.992 9 31.74 9 32.5C9 43.27 19.297 52 32 52C41.226 52 49.179 47.392 52.844 40.745C52.943 40.008 53 39.26 53 38.5C53 31.965 49.208 26.18 43.387 22.642Z" fill="#13D37C"/>
<path d="M18 38.0002C15.614 38.0002 13.455 36.5872 12.5 34.4002L14.332 33.5992C14.97 35.0582 16.409 36.0002 18 36.0002C20.206 36.0002 22 34.2062 22 32.0002C22 30.7302 21.417 29.5632 20.399 28.8002L21.6 27.2002C23.125 28.3452 24 30.0952 24 32.0002C24 35.3092 21.309 38.0002 18 38.0002ZM30.098 53.0142C26.144 53.0142 22.182 52.0072 18.517 49.9802L19.484 48.2302C26.672 52.2022 35.106 51.9012 42.047 47.4242L42.458 47.1592L43.542 48.8402L43.131 49.1052C39.099 51.7062 34.604 53.0142 30.098 53.0142Z" fill="#B4E4BD"/>
<path d="M39.9984 8.234V2H37.9984V8.234L34.5134 6.143L33.4844 7.858L38.4844 10.858C38.6424 10.953 38.8204 11 38.9984 11C39.1684 11 39.3384 10.957 39.4914 10.87C39.4984 10.866 39.5044 10.859 39.5114 10.855L39.5124 10.857L44.5124 7.857L43.4834 6.142L39.9984 8.234Z" fill="#0DB368"/>
<path d="M33.528 24C32.578 22.939 32 21.537 32 20C32 16.686 34.686 14 38 14C41.314 14 44 16.686 44 20C44 22.791 42.095 25.137 39.514 25.807L33.528 24Z" fill="#FFC239"/>
<path d="M38.0013 14C36.4753 14 35.0863 14.575 34.0273 15.513C34.2563 20.004 37.4393 23.707 41.6773 24.717C43.0843 23.619 44.0013 21.923 44.0013 20C44.0013 16.686 41.3153 14 38.0013 14Z" fill="#FFD55D"/>
<path d="M41.4086 29.433C40.1146 26.74 37.0106 25 33.5006 25C32.3986 25 31.3286 25.171 30.3166 25.509L29.6836 23.613C30.8986 23.206 32.1836 23 33.5006 23C37.7736 23 41.5866 25.185 43.2116 28.566L41.4086 29.433Z" fill="#B4E4BD"/>
</svg>
