<svg width="32" height="32" viewBox="0 0 32 32" fill="none" xmlns="http://www.w3.org/2000/svg">
<g clip-path="url(#clip0_3423_7026)">
<path d="M16 32C24.8366 32 32 24.8366 32 16C32 7.16344 24.8366 0 16 0C7.16344 0 0 7.16344 0 16C0 24.8366 7.16344 32 16 32Z" fill="#1C354D"/>
<path d="M26.2601 9.63584C25.5054 9.97073 24.6948 10.1971 23.8426 10.2989C24.7124 9.77802 25.3787 8.95265 25.6933 7.97032C24.8671 8.46106 23.9628 8.80655 23.0198 8.99177C22.2524 8.17378 21.1581 7.66309 19.9475 7.66309C17.6236 7.66309 15.739 9.54696 15.739 11.8721C15.739 12.2016 15.7761 12.523 15.8474 12.8316C12.3492 12.6558 9.24784 10.9801 7.17192 8.43391C6.80943 9.05577 6.60195 9.77878 6.60195 10.5502C6.60195 12.0103 7.34512 13.2986 8.47436 14.0532C7.80587 14.0325 7.15205 13.852 6.56756 13.527V13.5802C6.56756 15.6197 8.01821 17.3203 9.94386 17.7071C9.59012 17.804 9.21889 17.8546 8.83483 17.8546C8.56329 17.8546 8.29985 17.8289 8.04249 17.7805C8.57812 19.4522 10.1326 20.669 11.9739 20.7034C10.5334 21.8326 8.71824 22.5058 6.74679 22.5058C6.40723 22.5058 6.07164 22.4855 5.74219 22.4458C7.6052 23.6404 9.81721 24.3377 12.1943 24.3377C19.936 24.3377 24.17 17.9241 24.17 12.362C24.17 12.1794 24.166 11.9982 24.1572 11.8176C24.9821 11.2209 25.6942 10.4821 26.2601 9.63584Z" fill="#FCFEFD"/>
</g>
<defs>
<clipPath id="clip0_3423_7026">
<rect width="32" height="32" fill="white"/>
</clipPath>
</defs>
</svg>
