<svg width="32" height="32" viewBox="0 0 32 32" fill="none" xmlns="http://www.w3.org/2000/svg">
<path d="M15.6781 6.51463L20.7639 11.6029C21.6826 12.5221 21.6824 14.0126 20.7634 14.9321C19.8444 15.8516 18.3546 15.8518 17.4358 14.9326L16.0142 13.5103C14.463 11.9584 11.9477 11.9587 10.3961 13.511L9.04758 14.8602C7.93043 15.9779 6.11943 15.9781 5.00258 14.8608C4.07188 13.9296 4.07208 12.4197 5.00305 11.4883L9.97355 6.5154C11.549 4.93918 14.103 4.93883 15.6781 6.51463Z" stroke="#0DB368" stroke-width="1.5" stroke-linecap="round" stroke-linejoin="round"/>
<path d="M13.3672 23.2648L17.6121 19.0131M13.3672 23.2648L13.2214 23.4943C11.8795 25.6053 14.3594 28.0543 16.448 26.6806C16.5803 26.5936 16.7033 26.4933 16.8152 26.3813L26.928 16.2543C28.491 14.6889 28.4922 12.152 26.9307 10.5881L22.2374 5.88719C21.1965 4.84454 19.5079 4.84532 18.466 5.88894L17.3455 7.02529M13.3672 23.2648L13.199 23.3666C11.1517 24.6057 8.89041 22.1296 10.3044 20.197M10.3044 20.197L14.5492 15.9453M10.3044 20.197L10.0634 20.3362C8.00463 21.5253 5.80541 19.0258 7.24156 17.1292L9.69411 14.6727" stroke="#0DB368" stroke-width="1.5" stroke-linecap="round" stroke-linejoin="round"/>
</svg>
