<svg width="32" height="32" viewBox="0 0 32 32" fill="none" xmlns="http://www.w3.org/2000/svg">
<g clip-path="url(#clip0_5092_14354)">
<path d="M23.9187 23.92C21.6395 25.6573 18.8642 26.6198 15.9987 26.6666C6.66536 26.6666 1.33203 16 1.33203 16C2.99055 12.9091 5.29088 10.2088 8.0787 8.07995M13.1987 5.65329C14.1165 5.43846 15.0561 5.33107 15.9987 5.33329C25.332 5.33329 30.6654 16 30.6654 16C29.856 17.5141 28.8908 18.9396 27.7854 20.2533M18.8254 18.8266C18.4592 19.2196 18.0176 19.5348 17.5269 19.7535C17.0362 19.9721 16.5066 20.0896 15.9695 20.0991C15.4324 20.1086 14.8989 20.0098 14.4008 19.8086C13.9028 19.6074 13.4503 19.308 13.0705 18.9282C12.6907 18.5483 12.3912 18.0959 12.19 17.5978C11.9889 17.0997 11.8901 16.5662 11.8995 16.0292C11.909 15.4921 12.0266 14.9624 12.2452 14.4717C12.4638 13.9811 12.779 13.5395 13.172 13.1733" stroke="#FCFEFD" stroke-width="2" stroke-linecap="round" stroke-linejoin="round"/>
<path d="M1.33203 1.33337L30.6654 30.6667" stroke="#FCFEFD" stroke-width="2" stroke-linecap="round" stroke-linejoin="round"/>
</g>
<defs>
<clipPath id="clip0_5092_14354">
<rect width="32" height="32" fill="white"/>
</clipPath>
</defs>
</svg>
